<svg version="1.2" xmlns="http://www.w3.org/2000/svg" viewBox="0 0 205 302" width="205" height="302"><style>.a{fill:#c6ff24}.b{fill:#fff}</style><path class="a" d="m164.2 80.2c26.4 25.5 29.2 39.7 32 47.2 23.6 67-29.2 139.7-100 136.8-9.4-0.9-18.8-0.9-27.3-4.7-4.7-1.9-7.6 0-11.4 2.9q-19.8 18.8-40.5 37.7-1 1-2.8 1.9c13.2-27.4 27.3-54.7 45.2-81.2q-8.5 19.9-16 39.7c41.5-37.8 82.1-77.4 123.6-115.2-1.9-1.9-3.8-0.9-4.7-0.9q-15.1 0-30.2 0c-3.8 0-4.7-1-3.8-4.7 6.6-19.8 13.2-40.6 19.8-60.4 3.8-12.3 7.6-23.6 11.3-34.9 1-1.9 1.9-3.8 1-6.7-36.8 40.6-73.6 80.3-110.4 121.8h30.2c-4.7 12.3-11.3 23.6-17 34.9-7.5 14.2-16 28.3-24.5 42.5-1 2.8-1.9 5.6-5.7 1.9-44.3-42.5-44.3-118 1.9-158.6 25.5-22.6 55.7-30.2 89.6-24.5 3.8 0.9 5.7 0 7.6-2.9 17-16.9 33.9-33.9 51.9-52.8-5.7 17.9-15.1 64.2-19.8 80.2z"/><path class="b" d="m952.8 226.5c-25.4 0-37.7-12.3-37.7-35.9v-43.4h-26.4v-17.9h17c4.7 0 5.6 0.9 8.5 4.7l3.7 3.8 7.6-5.7-6.6-8.5c-2.9-3.7-3.8-5.6-3.8-11.3v-17.9h18.9v34.9h57.5v17.9h-57.5v43.4c0 12.3 5.6 18 18.8 18h1c12.2 0 18.8-5.7 18.8-18v-15.1h18.9v15.1c0 23.6-12.3 35.9-37.7 35.9z"/><path class="b" d="m820.8 224.6v-17.9h30.1v-52.9c0-4.7-0.9-6.6-6.6-6.6h-23.5v-17.9h29.2c14.2 0 19.8 6.6 19.8 19.8v57.6h26.4v17.9zm23.6-112.3v-25.5h26.4v25.5z"/><path class="b" d="m754.7 86.8v137.8h-18.9v-9.4c0-3.8 1-5.7 4.8-8.5l4.7-3.8-5.7-7.5-19.8 15.1c-13.2 10.3-22.6 16-34 16-16 0-27.3-10.4-27.3-29.3v-25.4c0-27.4 16-44.4 47.2-44.4h4.7c12.2 0 22.6 3.8 25.4 4.7v-45.3zm-48.1 58.5c-19.8 0-29.2 9.5-29.2 26.5v21.7c0 9.4 5.7 15.1 14.1 15.1 7.6 0 13.2-3.8 22.7-11.4l22.6-17.9v-29.2c-3.7-1-14.1-4.8-25.4-4.8z"/><path class="b" d="m544.3 224.6v-95.3h18.9v10.4c0 3.8-0.9 5.6-3.8 8.5l-4.7 3.7 5.7 7.6 19.8-16c13.2-10.4 22.6-15.1 34-15.1 16 0 27.3 10.3 27.3 28.3v67.9h-19.8v-64.2c0-9.4-4.7-15.1-13.2-15.1-8.5 0-13.2 4.8-22.7 11.4l-22.6 17.9v50z"/><path class="b" d="m473.6 226.5c-32.1 0-47.2-16-47.2-44.4v-9.4c0-29.2 15.1-45.3 48.1-45.3h6.6c32.1 0 47.2 16 47.2 45.3v10.4h-83c0.9 17 9.4 26.4 28.3 26.4h7.5c18 0 22.7-4.7 26.4-12.3h18v6.7c-6.6 14.1-18 22.6-44.4 22.6zm34.9-57.6c-0.9-17-8.5-24.5-27.3-24.5h-7.6c-16.9 0-26.4 7.5-28.3 24.5z"/><path class="b" d="m352.8 226.5c-33 0-47.1-11.3-50.9-34v-7.5h18.9c1.8 16 8.4 23.6 31.1 23.6h10.4c23.5 0 31.1-7.6 31.1-20.8 0-10.4-4.7-15.1-17-17.9l-40.6-9.5c-22.6-5.6-32-16-32-36.8 0-24.5 15.1-38.7 48.1-38.7h9.4c30.2 0 45.3 11.4 48.1 33.1v6.6h-18.8c-1-14.2-8.5-21.7-28.3-21.7h-11.4c-20.7 0-28.3 7.5-28.3 19.8 0 10.4 4.8 16 17 18.9l40.6 9.4c22.6 4.7 32.1 15.1 32.1 35.9 0 23.6-15.1 39.6-50 39.6z"/></svg>